<?xml version="1.0"?><svg fill="#f5404f" xmlns="http://www.w3.org/2000/svg" viewBox="0 0 24 24" width="24px" height="24px">    <path d="M 12 2 C 6.477 2 2 6.477 2 12 C 2 17.523 6.477 22 12 22 C 17.523 22 22 17.523 22 12 C 22 6.477 17.523 2 12 2 z M 12 4 C 16.418 4 20 7.582 20 12 C 20 16.418 16.418 20 12 20 C 7.582 20 4 16.418 4 12 C 4 7.582 7.582 4 12 4 z M 17 7 L 10.175781 10.175781 L 7 17 L 13.824219 13.824219 L 17 7 z M 12 10.900391 C 12.61 10.900391 13.099609 11.39 13.099609 12 C 13.099609 12.61 12.61 13.099609 12 13.099609 C 11.39 13.099609 10.900391 12.61 10.900391 12 C 10.900391 11.39 11.39 10.900391 12 10.900391 z"/></svg>