<svg id="Capa_1" fill="#4A5068" enable-background="new 0 0 512 512" height="512" viewBox="0 0 512 512" width="512" xmlns="http://www.w3.org/2000/svg"><g><path  fill="#4A5068" d="m241.974 241.05c0-8.284-6.716-15-15-15h-121.001c-8.284 0-15 6.716-15 15s6.716 15 15 15h121.001c8.284 0 15-6.716 15-15z"/><path fill="#4A5068" d="m166.024 286.05h-60.102c-8.284 0-15 6.716-15 15s6.716 15 15 15h60.102c8.284 0 15-6.716 15-15s-6.716-15-15-15z"/><path fill="#4A5068" d="m166.023 345.95h-60.15c-8.284 0-15 6.716-15 15s6.716 15 15 15h60.15c8.284 0 15-6.716 15-15s-6.716-15-15-15z"/><path d="m151.371 151h29.604v29.604c0 8.284 6.716 15 15 15s15-6.716 15-15v-29.604h29.604c8.284 0 15-6.716 15-15s-6.716-15-15-15h-29.604v-29.604c0-8.284-6.716-15-15-15s-15 6.716-15 15v29.604h-29.604c-8.284 0-15 6.716-15 15s6.715 15 15 15z"/><path d="m360.873 242.711v-31.711h106.05c8.284 0 15-6.716 15-15v-120.475c0-41.498-33.718-75.524-75.563-75.524-10.613 0-290.797-.001-301.352-.001-41.345 0-74.982 33.638-74.982 74.983v421.747c0 13.53 16.548 20.071 25.834 10.374l19.189-20.04 20.271 20.272c5.858 5.856 15.353 5.858 21.213.002l19.209-19.203 19.406 19.245c5.847 5.8 15.275 5.799 21.124.002l19.711-19.544 19.72 19.545c5.85 5.799 15.28 5.796 21.126-.007l25.493-25.3c23.171 18.705 52.624 29.924 84.652 29.924 74.439 0 135-60.561 135-135 0-69.748-53.167-127.309-121.101-134.289zm91.049-167.186v105.475h-91.05v-105.475c0-25.103 20.423-45.525 45.525-45.525s45.525 20.423 45.525 45.525zm-225.667 400.079-19.715-19.54c-5.848-5.797-15.273-5.795-21.121.002l-19.708 19.54-19.45-19.289c-5.864-5.814-15.325-5.798-21.168.042l-19.164 19.159-20.506-20.507c-6.095-6.095-15.757-5.704-21.44.232l-3.957 4.132v-384.392c0-24.803 20.179-44.983 44.982-44.983h241.176c-9.602 12.668-15.312 28.44-15.312 45.525v167.439c-66.875 7.985-118.898 65.045-118.898 134.036 0 31.626 10.936 60.744 29.219 83.78zm120.719 6.396c-57.897 0-105-47.103-105-105s47.103-105 105-105 105 47.103 105 105-47.102 105-105 105z"/><path d="m371.99 368.209c-12.525-9.761-29.142-11.739-32.313-17.463-.761-1.374.11-4.237 2.332-5.731 3.305-2.22 10.91-1.302 13.377.976 6.089 5.615 15.579 5.234 21.196-.856 5.616-6.09 5.233-15.579-.856-21.196-3.982-3.673-8.956-6.373-14.355-8.06-.131-8.171-6.786-14.757-14.988-14.757-8.284 0-15 6.716-15 15v.755c-19.165 7.888-27.622 30.944-17.948 48.408 6.793 12.264 18.495 16.886 27.897 20.599 6.212 2.454 16.619 6.159 15.876 12.801-.348 3.118-2.842 6.355-6.064 7.872-4.975 2.34-15.095.814-21.233-3.202-6.933-4.535-16.229-2.593-20.765 4.341-4.535 6.933-2.592 16.229 4.341 20.765 4.943 3.234 11.177 5.881 17.896 7.482v.254c0 8.284 6.716 15 15 15s15-6.716 15-15v-1.426c27.323-10.482 36.306-46.537 10.607-66.562z"/></g></svg>