<?xml version="1.0" encoding="UTF-8"?>
<svg width="41px" height="41px" viewBox="0 0 41 41" version="1.1" xmlns="http://www.w3.org/2000/svg" xmlns:xlink="http://www.w3.org/1999/xlink">
    <title>dashboard(1)</title>
    <g id="Desktop" stroke="none" stroke-width="1" fill="none" fill-rule="evenodd">
        <g id="Dashboard/Home" transform="translate(-37.000000, -361.000000)" fill="#4A5068" fill-rule="nonzero">
            <g id="NAV" transform="translate(-2.000000, -7.000000)">
                <g id="Icons" transform="translate(16.000000, 126.000000)">
                    <g id="dashboard(1)" transform="translate(23.000000, 242.000000)">
                        <path d="M12.510125,17.6794326 L8.23929167,17.6794326 C7.53204167,17.6794326 6.95804167,17.054139 6.95804167,16.2836879 C6.95804167,15.5132369 7.53204167,14.8879433 8.23929167,14.8879433 L12.510125,14.8879433 C13.217375,14.8879433 13.791375,15.5132369 13.791375,16.2836879 C13.791375,17.054139 13.217375,17.6794326 12.510125,17.6794326 Z" id="Path"></path>
                        <path d="M33.010125,17.6794326 L20.197625,17.6794326 C19.490375,17.6794326 18.916375,17.054139 18.916375,16.2836879 C18.916375,15.5132369 19.490375,14.8879433 20.197625,14.8879433 L33.010125,14.8879433 C33.717375,14.8879433 34.291375,15.5132369 34.291375,16.2836879 C34.291375,17.054139 33.717375,17.6794326 33.010125,17.6794326 Z" id="Path"></path>
                        <path d="M12.510125,25.1234043 L8.23929167,25.1234043 C7.53204167,25.1234043 6.95804167,24.4981106 6.95804167,23.7276596 C6.95804167,22.9572085 7.53204167,22.3319149 8.23929167,22.3319149 L12.510125,22.3319149 C13.217375,22.3319149 13.791375,22.9572085 13.791375,23.7276596 C13.791375,24.4981106 13.217375,25.1234043 12.510125,25.1234043 Z" id="Path"></path>
                        <path d="M33.010125,25.1234043 L20.197625,25.1234043 C19.490375,25.1234043 18.916375,24.4981106 18.916375,23.7276596 C18.916375,22.9572085 19.490375,22.3319149 20.197625,22.3319149 L33.010125,22.3319149 C33.717375,22.3319149 34.291375,22.9572085 34.291375,23.7276596 C34.291375,24.4981106 33.717375,25.1234043 33.010125,25.1234043 Z" id="Path"></path>
                        <path d="M12.510125,32.5673759 L8.23929167,32.5673759 C7.53204167,32.5673759 6.95804167,31.9420823 6.95804167,31.1716312 C6.95804167,30.4011801 7.53204167,29.7758865 8.23929167,29.7758865 L12.510125,29.7758865 C13.217375,29.7758865 13.791375,30.4011801 13.791375,31.1716312 C13.791375,31.9420823 13.217375,32.5673759 12.510125,32.5673759 Z" id="Path"></path>
                        <path d="M33.010125,32.5673759 L20.197625,32.5673759 C19.490375,32.5673759 18.916375,31.9420823 18.916375,31.1716312 C18.916375,30.4011801 19.490375,29.7758865 20.197625,29.7758865 L33.010125,29.7758865 C33.717375,29.7758865 34.291375,30.4011801 34.291375,31.1716312 C34.291375,31.9420823 33.717375,32.5673759 33.010125,32.5673759 Z" id="Path"></path>
                        <path d="M36.3020833,40.941844 L4.69791667,40.941844 C2.106375,40.941844 0,38.6472397 0,35.8241135 L0,5.1177305 C0,2.29460426 2.106375,0 4.69791667,0 L36.3020833,0 C38.893625,0 41,2.29460426 41,5.1177305 L41,35.8241135 C41,38.6472397 38.893625,40.941844 36.3020833,40.941844 Z M4.69791667,2.79148936 C3.520875,2.79148936 2.5625,3.83550638 2.5625,5.1177305 L2.5625,35.8241135 C2.5625,37.1063376 3.520875,38.1503546 4.69791667,38.1503546 L36.3020833,38.1503546 C37.479125,38.1503546 38.4375,37.1063376 38.4375,35.8241135 L38.4375,5.1177305 C38.4375,3.83550638 37.479125,2.79148936 36.3020833,2.79148936 L4.69791667,2.79148936 Z" id="Shape"></path>
                        <path d="M39.71875,9.30496454 L1.28125,9.30496454 C0.574,9.30496454 0,8.67967092 0,7.90921986 C0,7.13876879 0.574,6.51347518 1.28125,6.51347518 L39.71875,6.51347518 C40.426,6.51347518 41,7.13876879 41,7.90921986 C41,8.67967092 40.426,9.30496454 39.71875,9.30496454 Z" id="Path"></path>
                    </g>
                </g>
            </g>
        </g>
    </g>
</svg>