<?xml version="1.0" encoding="UTF-8" standalone="no"?>
<!DOCTYPE svg PUBLIC "-//W3C//DTD SVG 1.1//EN" "http://www.w3.org/Graphics/SVG/1.1/DTD/svg11.dtd">
<svg version="1.1" xmlns="http://www.w3.org/2000/svg" xmlns:xlink="http://www.w3.org/1999/xlink" preserveAspectRatio="xMidYMid meet" viewBox="337.9999999882312 279.00000000000006 45.000000011768805 45.00000000000006" width="41" height="41"><defs><path d="M378.9 297.83C377.22 296.16 363.84 282.78 362.17 281.11C361.46 280.39 360.51 280 359.5 280C358.49 280 357.54 280.39 356.83 281.11C355.16 282.78 341.78 296.15 340.11 297.82C340.11 297.83 340.1 297.83 340.1 297.84C338.63 299.31 338.63 301.7 340.1 303.17C340.77 303.84 341.66 304.23 342.61 304.27C342.65 304.27 342.69 304.27 342.72 304.27C342.77 304.27 342.99 304.27 343.39 304.27C343.39 311.66 343.39 315.76 343.39 316.58C343.39 319.02 345.37 321 347.81 321C348.46 321 353.7 321 354.35 321C355.02 321 355.55 320.46 355.55 319.8C355.55 318.83 355.55 311.11 355.55 310.15C355.55 309.04 356.46 308.13 357.57 308.13C357.96 308.13 361.04 308.13 361.43 308.13C362.54 308.13 363.45 309.04 363.45 310.15C363.45 311.11 363.45 318.83 363.45 319.8C363.45 320.46 363.98 321 364.65 321C365.3 321 370.54 321 371.19 321C373.63 321 375.61 319.02 375.61 316.58C375.61 315.76 375.61 311.66 375.61 304.27C375.98 304.27 376.19 304.27 376.23 304.27C377.24 304.27 378.18 303.88 378.9 303.17C380.37 301.7 380.37 299.31 378.9 297.83C378.9 297.83 378.9 297.83 378.9 297.83C378.9 297.83 378.9 297.83 378.9 297.83Z" id="a28wEByH6O"></path></defs><g><g><use xlink:href="#a28wEByH6O" opacity="1" fill="#4a5068" fill-opacity="1"></use><g><use xlink:href="#a28wEByH6O" opacity="1" fill-opacity="0" stroke="#000000" stroke-width="1" stroke-opacity="0"></use></g></g></g></svg>