<?xml version="1.0" encoding="UTF-8"?>
<svg width="208px" height="208px" viewBox="0 0 208 208" version="1.1" xmlns="http://www.w3.org/2000/svg" xmlns:xlink="http://www.w3.org/1999/xlink">
    <title>Path</title>
    <g id="Symbols" stroke="white" stroke-width="2" fill="none" fill-rule="evenodd">
        <g id="Artboard" fill="#FFFFFF" fill-rule="nonzero">
            <g id="plus(1)">
                <path d="M199.875,95.875 L112.125,95.875 L112.125,8.125 C112.125,3.6375625 108.487437,0 104,0 C99.5125625,0 95.875,3.6375625 95.875,8.125 L95.875,95.875 L8.125,95.875 C3.6375625,95.875 0,99.5125625 0,104 C0,108.487437 3.6375625,112.125 8.125,112.125 L95.875,112.125 L95.875,199.875 C95.875,204.362437 99.5125625,208 104,208 C108.487437,208 112.125,204.362437 112.125,199.875 L112.125,112.125 L199.875,112.125 C204.362437,112.125 208,108.487437 208,104 C208,99.5125625 204.362437,95.875 199.875,95.875 Z" id="Path"></path>
            </g>
        </g>
    </g>
</svg>