<?xml version="1.0" encoding="UTF-8"?>
<svg width="41px" height="41px" viewBox="0 0 41 41" version="1.1" xmlns="http://www.w3.org/2000/svg" xmlns:xlink="http://www.w3.org/1999/xlink">
    <title>print</title>
    <g id="Desktop" stroke="none" stroke-width="1" fill="none" fill-rule="evenodd">
        <g id="Dashboard/Home" transform="translate(-37.000000, -459.000000)" fill="#4A5068" fill-rule="nonzero">
            <g id="NAV" transform="translate(-2.000000, -7.000000)">
                <g id="Icons" transform="translate(16.000000, 126.000000)">
                    <g id="print" transform="translate(23.000000, 340.000000)">
                        <path d="M33.7816901,7.79577465 L33.7816901,5.90588988 C33.7816901,2.6493822 31.076782,0 27.7520241,0 L12.9592435,0 C9.63448564,0 6.92957746,2.6493822 6.92957746,5.90588988 L6.92957746,7.79577465 L33.7816901,7.79577465 Z" id="Path"></path>
                        <path d="M9.52816901,25.4084507 L9.52816901,35.2642487 L9.52816901,37.3646647 L9.52816901,38.5764431 C9.52816901,39.9148928 10.6038089,41 11.9307597,41 L29.0692403,41 C30.3961911,41 31.471831,39.9148928 31.471831,38.5764431 L31.471831,37.3646647 L31.471831,35.2642487 L31.471831,25.4084507 L9.52816901,25.4084507 Z M23.7034543,35.7489601 L17.2965457,35.7489601 C16.6331103,35.7489601 16.0952503,35.2064065 16.0952503,34.5371816 C16.0952503,33.8679568 16.6331103,33.3254032 17.2965457,33.3254032 L23.7034543,33.3254032 C24.3668897,33.3254032 24.9047497,33.8679568 24.9047497,34.5371816 C24.9047497,35.2064065 24.3668897,35.7489601 23.7034543,35.7489601 Z M23.7034543,30.5787054 L17.2965457,30.5787054 C16.6331103,30.5787054 16.0952503,30.0361518 16.0952503,29.366927 C16.0952503,28.6977021 16.6331103,28.1551485 17.2965457,28.1551485 L23.7034543,28.1551485 C24.3668897,28.1551485 24.9047497,28.6977021 24.9047497,29.366927 C24.9047497,30.0361518 24.3668897,30.5787054 23.7034543,30.5787054 Z" id="Shape"></path>
                        <path d="M34.9823875,10.3943662 L6.01761252,10.3943662 C2.69950098,10.3943662 0,13.092811 0,16.4096244 L0,26.0340376 C0,29.3508509 2.69950098,32.0492958 6.01761252,32.0492958 L7.06066536,32.0492958 L7.06066536,25.6330203 L6.33855186,25.6330203 C5.6738865,25.6330203 5.13502935,25.094374 5.13502935,24.4299687 C5.13502935,23.7655634 5.6738865,23.2269171 6.33855186,23.2269171 L8.26418787,23.2269171 L32.6555773,23.2269171 L34.5812133,23.2269171 C35.2458787,23.2269171 35.7847358,23.7655634 35.7847358,24.4299687 C35.7847358,25.094374 35.2458787,25.6330203 34.5812133,25.6330203 L33.8590998,25.6330203 L33.8590998,32.0492958 L34.9823875,32.0492958 C38.300499,32.0492958 41,29.3508509 41,26.0340376 L41,16.4096244 C41,13.092811 38.300499,10.3943662 34.9823875,10.3943662 Z M10.1898239,17.9334898 L6.33855186,17.9334898 C5.6738865,17.9334898 5.13502935,17.3948435 5.13502935,16.7304382 C5.13502935,16.0660329 5.6738865,15.5273865 6.33855186,15.5273865 L10.1898239,15.5273865 C10.8544892,15.5273865 11.3933464,16.0660329 11.3933464,16.7304382 C11.3933464,17.3948435 10.8544892,17.9334898 10.1898239,17.9334898 Z" id="Shape"></path>
                    </g>
                </g>
            </g>
        </g>
    </g>
</svg>